<svg width="24" height="28" viewBox="0 0 24 28" fill="none" xmlns="http://www.w3.org/2000/svg">
    <path d="M17.4258 0.0140123C17.3663 -0.0524877 15.2225 0.0402623 13.357 2.06501C11.4915 4.08801 11.7785 6.40851 11.8205 6.46801C11.8625 6.52751 14.4805 6.62026 16.1518 4.26651C17.823 1.91276 17.4853 0.0822623 17.4258 0.0140123ZM23.2253 20.5468C23.1413 20.3788 19.1565 18.3873 19.5275 14.5583C19.8985 10.7293 22.4588 9.67751 22.499 9.56376C22.5393 9.45001 21.4543 8.18126 20.3045 7.53901C19.4602 7.08664 18.526 6.82724 17.5693 6.77951C17.3803 6.77426 16.724 6.61326 15.3748 6.98251C14.4858 7.22576 12.482 8.01326 11.9308 8.04476C11.3778 8.07626 9.73279 7.13126 7.96354 6.88101C6.83129 6.66226 5.63079 7.11026 4.77154 7.45501C3.91404 7.79801 2.28304 8.77451 1.14204 11.3698C0.00104201 13.9633 0.597792 18.0723 1.02479 19.3498C1.45179 20.6273 2.11854 22.7168 3.25254 24.2428C4.26054 25.9648 5.59754 27.16 6.15579 27.566C6.71404 27.972 8.28904 28.2415 9.38104 27.6833C10.2595 27.1443 11.845 26.8345 12.4715 26.8573C13.0963 26.88 14.3283 27.1268 15.59 27.8005C16.5893 28.1453 17.5343 28.0018 18.481 27.6168C19.4278 27.23 20.798 25.7635 22.3975 22.7903C23.0042 21.4078 23.2801 20.6599 23.2253 20.5468Z" fill="black"/>
    <path d="M17.4258 0.0140123C17.3663 -0.0524877 15.2225 0.0402623 13.357 2.06501C11.4915 4.08801 11.7785 6.40851 11.8205 6.46801C11.8625 6.52751 14.4805 6.62026 16.1518 4.26651C17.823 1.91276 17.4853 0.0822623 17.4258 0.0140123ZM23.2253 20.5468C23.1413 20.3788 19.1565 18.3873 19.5275 14.5583C19.8985 10.7293 22.4588 9.67751 22.499 9.56376C22.5393 9.45001 21.4543 8.18126 20.3045 7.53901C19.4602 7.08664 18.526 6.82724 17.5693 6.77951C17.3803 6.77426 16.724 6.61326 15.3748 6.98251C14.4858 7.22576 12.482 8.01326 11.9308 8.04476C11.3778 8.07626 9.73279 7.13126 7.96354 6.88101C6.83129 6.66226 5.63079 7.11026 4.77154 7.45501C3.91404 7.79801 2.28304 8.77451 1.14204 11.3698C0.00104201 13.9633 0.597792 18.0723 1.02479 19.3498C1.45179 20.6273 2.11854 22.7168 3.25254 24.2428C4.26054 25.9648 5.59754 27.16 6.15579 27.566C6.71404 27.972 8.28904 28.2415 9.38104 27.6833C10.2595 27.1443 11.845 26.8345 12.4715 26.8573C13.0963 26.88 14.3283 27.1268 15.59 27.8005C16.5893 28.1453 17.5343 28.0018 18.481 27.6168C19.4278 27.23 20.798 25.7635 22.3975 22.7903C23.0042 21.4078 23.2801 20.6599 23.2253 20.5468Z" fill="black"/>
</svg>
