<svg width="33" height="20" viewBox="0 0 33 20" fill="none" xmlns="http://www.w3.org/2000/svg">
    <g clip-path="url(#clip0_2062_2240)">
        <path d="M0 0H33V20H0V0Z" fill="#1E50A0"/>
        <path d="M26.2048 11.55L26.6982 9.97103L27.1916 11.55L25.8998 10.5737L27.4966 10.5742L26.2048 11.55ZM8.25011 15.7889L7.42085 16.5663L7.50335 15.4242L6.38721 15.2516L7.31866 14.6042L6.75606 13.6116L7.83548 13.9468L8.25011 12.8821L8.66474 13.9468L9.74416 13.6116L9.18156 14.6042L10.113 15.2516L8.99687 15.4242L9.07937 16.5663L8.25011 15.7889ZM21.0243 9.69524L20.4319 10.2505L20.491 9.43471L19.6937 9.31103L20.359 8.84892L19.9571 8.13998L20.7284 8.37945L21.0243 7.61892L21.3202 8.37945L22.0915 8.13998L21.6896 8.84892L22.3549 9.31103L21.5576 9.43471L21.6167 10.2505L21.0243 9.69524ZM29.0082 8.11629L28.4158 8.67156L28.4749 7.85576L27.6775 7.73208L28.3429 7.26997L27.941 6.56103L28.7122 6.8005L29.0082 6.03997L29.3041 6.8005L30.0754 6.56103L29.6735 7.26997L30.3388 7.73208L29.5415 7.85576L29.6006 8.67156L29.0082 8.11629ZM24.7501 4.9584L24.1577 5.51366L24.2168 4.69787L23.4195 4.57419L24.0848 4.11208L23.6829 3.40313L24.4542 3.64261L24.7501 2.88208L25.046 3.64261L25.8173 3.40313L25.4154 4.11208L26.0808 4.57419L25.2834 4.69787L25.3425 5.51366L24.7501 4.9584ZM24.7501 16.011L24.1577 16.5663L24.2168 15.7505L23.4195 15.6268L24.0848 15.1647L23.6829 14.4558L24.4542 14.6952L24.7501 13.9347L25.046 14.6952L25.8173 14.4558L25.4154 15.1647L26.0808 15.6268L25.2834 15.7505L25.3425 16.5663L24.7501 16.011Z" fill="white" stroke="white" stroke-linecap="round" stroke-linejoin="round"/>
        <path d="M2.60111 0.526367H0.532227V1.75374L14.4311 10.0001H16.5V8.77268L2.60111 0.526367Z" fill="white"/>
        <path d="M16.5 1.75374V0.526367H14.4311L0.532227 8.77268V10.0001H2.60111L16.5 1.75374Z" fill="white"/>
        <path d="M0.532227 3.6842H16.5V6.8421H0.532227V3.6842Z" fill="white"/>
        <path d="M6.91943 0.526367H10.113V10.0001H6.91943V0.526367Z" fill="white"/>
        <path d="M7.98389 0.526367H9.0484V10.0001H7.98389V0.526367Z" fill="#D22F27"/>
        <path d="M0.532227 4.73689H16.5V5.78953H0.532227V4.73689ZM16.5 8.77268L13.2463 6.84216H11.1774L16.5 10.0001V8.77268ZM16.5 0.526367H14.4311L10.1129 3.08847V3.68426H11.1774L16.5 0.526367ZM0.532227 1.75374L3.78592 3.68426H5.85481L0.532227 0.526367V1.75374ZM0.532227 10.0001H2.60111L6.91932 7.43795V6.84216H5.85481L0.532227 10.0001Z" fill="#D22F27"/>
        <path d="M0 0H33V20H0V0Z" stroke="black" stroke-width="2" stroke-linecap="round" stroke-linejoin="round"/>
    </g>
    <defs>
        <clipPath id="clip0_2062_2240">
            <rect width="33" height="20" fill="white"/>
        </clipPath>
    </defs>
</svg>
