<svg width="21" height="24" viewBox="0 0 21 24" fill="none" xmlns="http://www.w3.org/2000/svg">
    <g clip-path="url(#clip0_2062_2373)">
        <path d="M17.8239 1.8682C16.7353 0.606054 14.7675 0.0649414 12.25 0.0649414H4.94379C4.69471 0.0649023 4.45378 0.155276 4.26435 0.319806C4.07492 0.484337 3.94942 0.712225 3.91043 0.962478L0.868246 20.589C0.807777 20.976 1.10239 21.3265 1.48801 21.3265H5.99864L7.13145 14.0175L7.09629 14.2464C7.177 13.7298 7.61137 13.3487 8.12575 13.3487H10.2692C14.48 13.3487 17.7771 11.6089 18.7402 6.57617C18.7688 6.42733 18.7936 6.28245 18.815 6.14092C18.6934 6.07543 18.6934 6.07543 18.815 6.14092C19.1018 4.28076 18.813 3.01456 17.8239 1.8682Z" fill="#27346A"/>
        <path d="M8.85739 5.47082C8.98067 5.411 9.11556 5.38004 9.25215 5.38023H14.9801C15.6584 5.38023 16.2911 5.42513 16.8692 5.51978C17.031 5.54603 17.1919 5.57736 17.3518 5.61371C17.5783 5.66458 17.8023 5.72683 18.0229 5.80023C18.3071 5.89678 18.5718 6.00923 18.815 6.14092C19.1018 4.28004 18.813 3.01456 17.8239 1.8682C16.7347 0.606054 14.7675 0.0649414 12.25 0.0649414H4.94317C4.42871 0.0649414 3.99106 0.445922 3.91043 0.962478L0.868247 20.5883C0.807778 20.9759 1.10239 21.3259 1.48739 21.3259H5.99864L8.34887 6.16539C8.372 6.01638 8.43036 5.87532 8.51894 5.75433C8.60752 5.63334 8.72367 5.53605 8.85739 5.47082Z" fill="#27346A"/>
        <path d="M18.7402 6.57613C17.777 11.6082 14.48 13.3487 10.2691 13.3487H8.12508C7.6107 13.3487 7.17625 13.7297 7.09633 14.2464L5.68703 23.3342C5.63437 23.6729 5.89187 23.9798 6.22875 23.9798H10.0311C10.2489 23.9797 10.4595 23.9006 10.6251 23.7567C10.7907 23.6128 10.9004 23.4135 10.9344 23.1946L10.9715 22.9975L11.6881 18.3775L11.7343 18.1221C11.7683 17.9033 11.878 17.704 12.0436 17.5601C12.2092 17.4161 12.4198 17.337 12.6376 17.3369H13.2066C16.89 17.3369 19.7741 15.8148 20.617 11.4124C20.9687 9.57271 20.7867 8.03671 19.8561 6.95782C19.5738 6.63104 19.2233 6.36116 18.8149 6.14087C18.7928 6.28312 18.7688 6.42728 18.7402 6.57613Z" fill="#2790C3"/>
        <path d="M17.8068 5.7321C17.6566 5.6875 17.505 5.64801 17.3522 5.61369C17.1923 5.57792 17.0313 5.54681 16.8696 5.52039C16.2909 5.42511 15.6587 5.38013 14.9798 5.38013H9.25254C9.11587 5.3799 8.98091 5.41111 8.85777 5.47144C8.72388 5.53643 8.60758 5.63366 8.51896 5.75469C8.43034 5.87572 8.37206 6.0169 8.34918 6.16601L7.13184 14.0175L7.09668 14.2464C7.17676 13.7297 7.61113 13.3487 8.12559 13.3487H10.2696C14.4804 13.3487 17.7775 11.6089 18.7406 6.57616C18.7693 6.42731 18.7933 6.28307 18.8154 6.1409C18.5716 6.01004 18.3075 5.89668 18.0232 5.80084C17.9515 5.77665 17.8794 5.75373 17.8068 5.7321" fill="#1F264F"/>
    </g>
    <defs>
        <clipPath id="clip0_2062_2373">
            <rect width="20" height="24" fill="white" transform="translate(0.857422)"/>
        </clipPath>
    </defs>
</svg>
