<svg width="23" height="25" viewBox="0 0 23 25" fill="none" xmlns="http://www.w3.org/2000/svg">
    <path d="M9.02295 1.38586H14.6926V11.5733H9.02295V1.38586Z" fill="#FF5F00"/>
    <path d="M9.38261 6.47962C9.38261 4.40977 10.3545 2.57384 11.8484 1.38588C10.7505 0.521951 9.36465 0 7.85275 0C4.27083 0 1.37305 2.89779 1.37305 6.47962C1.37305 10.0615 4.27083 12.9592 7.85267 12.9592C9.36457 12.9592 10.7505 12.4373 11.8484 11.5733C10.3545 10.4034 9.38261 8.54947 9.38261 6.47962Z" fill="#EB001B"/>
    <path d="M22.342 6.47962C22.342 10.0614 19.4443 12.9592 15.8624 12.9592C14.3505 12.9592 12.9646 12.4373 11.8667 11.5733C13.3786 10.3854 14.3326 8.54947 14.3326 6.47962C14.3326 4.40977 13.3606 2.57384 11.8667 1.38588C12.9646 0.521951 14.3505 0 15.8624 0C19.4443 0 22.342 2.91582 22.342 6.47962Z" fill="#F79E1B"/>
    <g clip-path="url(#clip0_2062_2360)">
        <path d="M12.2353 19.3554C12.2227 20.345 13.1173 20.8972 13.7911 21.2256C14.4834 21.5625 14.716 21.7785 14.7132 22.0798C14.7081 22.5409 14.161 22.7444 13.649 22.7523C12.7559 22.7661 12.2366 22.5111 11.8237 22.3183L11.502 23.8238C11.9162 24.0147 12.6832 24.1812 13.4785 24.1885C15.3455 24.1885 16.567 23.2669 16.5736 21.838C16.5809 20.0245 14.0652 19.9242 14.0824 19.1136C14.0884 18.8678 14.3229 18.6055 14.8368 18.5389C15.0912 18.5052 15.7934 18.4794 16.5895 18.846L16.902 17.3894C16.4738 17.2335 15.9236 17.0842 15.2385 17.0842C13.4812 17.0842 12.2453 18.0183 12.2353 19.3554ZM19.9044 17.2097C19.5635 17.2097 19.2762 17.4085 19.148 17.7137L16.4811 24.0815H18.3467L18.718 23.0555H20.9977L21.2131 24.0815H22.8574L21.4225 17.2097H19.9044ZM20.1654 19.066L20.7038 21.6464H19.2293L20.1654 19.066ZM9.97333 17.2098L8.50277 24.0814H10.2806L11.7504 17.2096L9.97333 17.2098ZM7.34338 17.2098L5.49298 21.8869L4.74446 17.91C4.65663 17.466 4.30979 17.2097 3.92462 17.2097H0.899789L0.857422 17.4092C1.47841 17.544 2.18395 17.7613 2.61141 17.9938C2.873 18.1359 2.94759 18.2601 3.03353 18.5976L4.45124 24.0815H6.32992L9.2102 17.2097L7.34338 17.2098Z" fill="url(#paint0_linear_2062_2360)"/>
    </g>
    <defs>
        <linearGradient id="paint0_linear_2062_2360" x1="1012.29" y1="38.4397" x2="1032.85" y2="-691.18" gradientUnits="userSpaceOnUse">
            <stop stop-color="#222357"/>
            <stop offset="1" stop-color="#254AA5"/>
        </linearGradient>
        <clipPath id="clip0_2062_2360">
            <rect width="22" height="7.13281" fill="white" transform="translate(0.857422 17.0842)"/>
        </clipPath>
    </defs>
</svg>
