<svg width="18" height="18" viewBox="0 0 18 18" fill="none" xmlns="http://www.w3.org/2000/svg">
    <path fill-rule="evenodd" clip-rule="evenodd" d="M9.9 4.76736C9.90004 4.55391 9.82422 4.34739 9.68607 4.18467C9.54792 4.02195 9.35643 3.91364 9.1458 3.87906L2.0907 2.72346C1.83313 2.68131 1.56948 2.69567 1.31802 2.76556C1.06656 2.83544 0.833304 2.95917 0.634421 3.12818C0.435538 3.29718 0.275786 3.50741 0.166238 3.7443C0.0566901 3.98119 -3.32068e-05 4.23907 1.45843e-08 4.50006V13.2634C0.000177789 13.6923 0.153504 14.107 0.432361 14.4329C0.711218 14.7588 1.09728 14.9744 1.521 15.0409L8.8605 16.1893C8.98892 16.2094 9.12018 16.2015 9.24526 16.1661C9.37033 16.1306 9.48625 16.0686 9.58503 15.9841C9.68381 15.8996 9.76312 15.7947 9.81749 15.6766C9.87186 15.5585 9.90001 15.43 9.9 15.3001V4.76736ZM1.8 13.2634V4.50006L8.1 5.53236V14.248L1.8 13.2634Z" fill="white"/>
    <path fill-rule="evenodd" clip-rule="evenodd" d="M18.0001 4.50006C18.0001 4.23907 17.9434 3.98119 17.8339 3.7443C17.7243 3.50741 17.5646 3.29718 17.3657 3.12818C17.1668 2.95917 16.9335 2.83544 16.6821 2.76556C16.4306 2.69567 16.167 2.68131 15.9094 2.72346L8.8543 3.87906C8.64366 3.91364 8.45218 4.02195 8.31403 4.18467C8.17587 4.34739 8.10005 4.55391 8.1001 4.76736V15.3001C8.10009 15.43 8.12824 15.5585 8.18261 15.6766C8.23698 15.7947 8.31629 15.8996 8.41507 15.9841C8.51385 16.0686 8.62977 16.1306 8.75484 16.1661C8.87991 16.2015 9.01118 16.2094 9.1396 16.1893L16.4782 15.0409C16.9021 14.9746 17.2884 14.7591 17.5674 14.4332C17.8464 14.1073 17.9999 13.6924 18.0001 13.2634V4.50006ZM16.2001 13.2634L9.9001 14.248V5.53236L16.2001 4.50006V13.2634Z" fill="white"/>
</svg>
