<svg width="18" height="18" viewBox="0 0 18 18" fill="none" xmlns="http://www.w3.org/2000/svg">
    <path d="M3.375 14.625H7.4068C7.22896 15.0298 7.12829 15.4681 7.12829 15.9141V16.125H3.375C2.13427 16.125 1.125 15.1157 1.125 13.875C1.125 13.875 1.13891 3.10368 1.1554 3.00256C1.32971 1.93213 2.31848 1.125 3.4552 1.125H13.875C14.2892 1.125 14.625 1.46081 14.625 1.875C14.625 2.28919 14.2892 2.625 13.875 2.625H3.4552C3.05237 2.625 2.69239 2.89672 2.63563 3.24353C2.599 3.47095 2.65833 3.68994 2.80335 3.86059C2.94617 4.02869 3.15455 4.125 3.37501 4.125H13.875C15.1157 4.125 16.125 5.13427 16.125 6.375V7.43989C15.642 7.25642 15.1362 7.15608 14.625 7.13997V6.375C14.625 5.96155 14.2885 5.625 13.875 5.625H3.37501C3.11463 5.625 2.86437 5.56824 2.62501 5.48309V13.875C2.62501 14.2885 2.96155 14.625 3.375 14.625Z" fill="white"/>
    <g clip-path="url(#clip0_2062_1964)">
        <path d="M14.3138 9.51963C14.188 9.47225 14.0478 9.48088 13.9288 9.5435C13.8105 9.60563 13.724 9.7155 13.6918 9.84513C13.6343 10.0763 13.7569 10.3125 13.9774 10.3947C15.2098 10.8546 15.9396 12.0934 15.7521 13.4071C15.5755 14.6455 14.5415 15.6375 13.2935 15.766C12.4959 15.8482 11.7308 15.599 11.1386 15.0648C10.554 14.5371 10.2188 13.7846 10.2188 12.9999C10.2188 12.0983 10.646 11.2681 11.3701 10.7463V11.4639C11.3701 11.7222 11.5805 11.9326 11.8389 11.9326C12.0973 11.9326 12.3076 11.7224 12.3076 11.4639V9.625C12.3076 9.4355 12.1534 9.28125 11.9639 9.28125H10.1251C9.86677 9.28125 9.65639 9.49163 9.65639 9.75C9.65639 10.0084 9.86664 10.2188 10.1251 10.2188H10.5333C9.61564 11.0331 9.15164 12.2659 9.31427 13.4979C9.54589 15.2521 11.057 16.635 12.8293 16.7147C12.8871 16.7174 12.9446 16.7186 13.0021 16.7186C13.963 16.7186 14.8686 16.356 15.5681 15.6873C16.3103 14.9779 16.7189 14.0234 16.7189 12.9999C16.7189 11.4586 15.7524 10.06 14.3138 9.51963Z" fill="white"/>
    </g>
    <defs>
        <clipPath id="clip0_2062_1964">
            <rect width="8" height="8" fill="white" transform="translate(9 9)"/>
        </clipPath>
    </defs>
</svg>
