<svg width="18" height="18" viewBox="0 0 18 18" fill="none" xmlns="http://www.w3.org/2000/svg">
    <g clip-path="url(#clip0_2062_1957)">
        <path d="M9.79518 7.8753V3.87578C10.6507 4.02009 11.4575 4.37117 12.1472 4.89838C12.2847 4.99267 12.446 5.04382 12.613 5.04607C13.1482 5.04607 13.5845 4.61544 13.5902 4.08028C13.5913 3.85078 13.5016 3.63035 13.3402 3.46673C12.3438 2.61341 11.0939 2.11007 9.78382 2.03508V0.694314C9.78382 0.311389 9.47364 0.00120219 9.09071 0.00120219C9.08276 7.71813e-05 9.07478 7.71813e-05 9.06684 7.71813e-05C8.67825 -0.00561819 8.35784 0.304604 8.35214 0.694314V1.98962C5.79562 2.17142 4.0572 3.75079 4.0572 5.85281C4.0572 8.43204 6.25013 9.14789 8.35214 9.71599V14.2609C7.24316 14.1121 6.19785 13.6519 5.34112 12.9316C5.17978 12.8032 4.97978 12.7316 4.77299 12.727C4.24919 12.7634 3.84584 13.202 3.85262 13.7269C3.8515 13.9564 3.94125 14.1769 4.10259 14.3405C5.27632 15.3972 6.78525 16.0051 8.36346 16.0562V17.3061C8.36346 17.314 8.36458 17.322 8.36458 17.3299C8.38276 17.7185 8.71341 18.0185 9.10199 17.9992C9.48492 17.9992 9.79511 17.689 9.79511 17.3061V16.0335C12.897 15.829 14.1469 13.9428 14.1469 11.9431C14.1469 9.26152 11.8972 8.44343 9.79518 7.8753ZM8.36353 7.51171C7.12503 7.14812 6.15925 6.77317 6.15925 5.71647C6.15925 4.65977 7.03415 3.89849 8.36353 3.79625V7.51171ZM9.79518 14.2836V10.1478C11.0791 10.5114 12.079 10.9999 12.0676 12.193C12.0676 13.0565 11.4768 14.0791 9.79518 14.2836Z" fill="white"/>
    </g>
    <defs>
        <clipPath id="clip0_2062_1957">
            <rect width="18" height="18" fill="white"/>
        </clipPath>
    </defs>
</svg>
