<svg width="20" height="20" viewBox="0 0 20 20" fill="none" xmlns="http://www.w3.org/2000/svg">
    <path fill-rule="evenodd" clip-rule="evenodd" d="M3.125 7.5V5.83333C3.125 5.115 3.41 4.42583 3.91833 3.91833C4.42583 3.41 5.115 3.125 5.83333 3.125H7.5C7.845 3.125 8.125 2.845 8.125 2.5C8.125 2.155 7.845 1.875 7.5 1.875H5.83333C4.78333 1.875 3.77667 2.29167 3.03417 3.03417C2.29167 3.77667 1.875 4.78333 1.875 5.83333V7.5C1.875 7.845 2.155 8.125 2.5 8.125C2.845 8.125 3.125 7.845 3.125 7.5Z" fill="white"/>
    <path fill-rule="evenodd" clip-rule="evenodd" d="M12.5 3.125H14.1667C14.885 3.125 15.5742 3.41 16.0817 3.91833C16.59 4.42583 16.875 5.115 16.875 5.83333V7.5C16.875 7.845 17.155 8.125 17.5 8.125C17.845 8.125 18.125 7.845 18.125 7.5V5.83333C18.125 4.78333 17.7083 3.77667 16.9658 3.03417C16.2233 2.29167 15.2167 1.875 14.1667 1.875C13.2483 1.875 12.5 1.875 12.5 1.875C12.155 1.875 11.875 2.155 11.875 2.5C11.875 2.845 12.155 3.125 12.5 3.125Z" fill="white"/>
    <path fill-rule="evenodd" clip-rule="evenodd" d="M1.875 12.5V14.1667C1.875 15.2167 2.29167 16.2233 3.03417 16.9658C3.77667 17.7083 4.78333 18.125 5.83333 18.125H7.5C7.845 18.125 8.125 17.845 8.125 17.5C8.125 17.155 7.845 16.875 7.5 16.875H5.83333C5.115 16.875 4.42583 16.59 3.91833 16.0817C3.41 15.5742 3.125 14.885 3.125 14.1667C3.125 13.2483 3.125 12.5 3.125 12.5C3.125 12.155 2.845 11.875 2.5 11.875C2.155 11.875 1.875 12.155 1.875 12.5Z" fill="white"/>
    <path fill-rule="evenodd" clip-rule="evenodd" d="M12.5 18.125H14.1667C15.2167 18.125 16.2233 17.7083 16.9658 16.9658C17.7083 16.2233 18.125 15.2167 18.125 14.1667C18.125 13.2483 18.125 12.5 18.125 12.5C18.125 12.155 17.845 11.875 17.5 11.875C17.155 11.875 16.875 12.155 16.875 12.5V14.1667C16.875 14.885 16.59 15.5742 16.0817 16.0817C15.5742 16.59 14.885 16.875 14.1667 16.875C13.2483 16.875 12.5 16.875 12.5 16.875C12.155 16.875 11.875 17.155 11.875 17.5C11.875 17.845 12.155 18.125 12.5 18.125Z" fill="white"/>
    <path fill-rule="evenodd" clip-rule="evenodd" d="M12.2915 7.08325V7.91659C12.2915 8.26159 12.5715 8.54159 12.9165 8.54159C13.2615 8.54159 13.5415 8.26159 13.5415 7.91659V7.08325C13.5415 6.73825 13.2615 6.45825 12.9165 6.45825C12.5715 6.45825 12.2915 6.73825 12.2915 7.08325Z" fill="white"/>
    <path fill-rule="evenodd" clip-rule="evenodd" d="M6.4585 7.08325V7.91659C6.4585 8.26159 6.7385 8.54159 7.0835 8.54159C7.4285 8.54159 7.7085 8.26159 7.7085 7.91659V7.08325C7.7085 6.73825 7.4285 6.45825 7.0835 6.45825C6.7385 6.45825 6.4585 6.73825 6.4585 7.08325Z" fill="white"/>
    <path fill-rule="evenodd" clip-rule="evenodd" d="M9.79152 10.4466V8.33325C9.79152 7.98825 10.0715 7.70825 10.4165 7.70825C10.7615 7.70825 11.0415 7.98825 11.0415 8.33325V10.8333C11.0415 11.0699 10.9073 11.2866 10.6957 11.3924L9.86235 11.8091C9.55402 11.9633 9.17818 11.8383 9.02402 11.5291C8.86985 11.2208 8.99485 10.8449 9.30402 10.6908L9.79152 10.4466Z" fill="white"/>
    <path fill-rule="evenodd" clip-rule="evenodd" d="M12.4752 12.4751C12.5885 12.3617 12.7443 12.2917 12.9168 12.2917C13.2618 12.2917 13.5418 12.5717 13.5418 12.9167C13.5418 13.0892 13.4718 13.2451 13.3585 13.3584C13.2452 13.4717 13.3585 13.3592 13.3577 13.3601C11.5035 15.2142 8.49683 15.2142 6.64266 13.3601C6.64183 13.3592 6.64183 13.3584 6.64183 13.3584C6.5285 13.2451 6.4585 13.0892 6.4585 12.9167C6.4585 12.5717 6.7385 12.2917 7.0835 12.2917C7.256 12.2917 7.41183 12.3617 7.52516 12.4751C7.6385 12.5884 7.526 12.4751 7.52683 12.4759C8.89266 13.8417 11.1077 13.8417 12.4735 12.4759C12.4743 12.4751 12.4752 12.4751 12.4752 12.4751Z" fill="white"/>
</svg>
