<svg width="18" height="18" viewBox="0 0 18 18" fill="none" xmlns="http://www.w3.org/2000/svg">
    <path d="M15.7671 9.7538C14.9642 9.22829 13.8854 9.25287 13.1017 9.80672C12.1393 10.487 11.8543 11.6721 12.239 12.6557L9.65974 15.2349C9.47951 15.415 9.37831 15.6595 9.37831 15.9142L9.37826 16.875L10.339 16.875C10.5938 16.875 10.8382 16.7737 11.0183 16.5936L11.0766 16.5353C10.889 16.3477 10.889 16.0436 11.0766 15.856C11.2093 15.7233 11.4003 15.6845 11.5671 15.7395C11.7182 15.7893 11.8845 15.7274 11.997 15.6149L12.1942 15.4177C12.3067 15.3052 12.3686 15.139 12.3188 14.9879C12.2637 14.8211 12.3025 14.63 12.4352 14.4973C12.6228 14.3097 12.927 14.3097 13.1146 14.4973L13.5976 14.0143C14.4592 14.3513 15.4755 14.1744 16.1716 13.4784C17.2291 12.4208 17.0943 10.6225 15.7671 9.7538ZM14.4732 12.53C14.059 12.53 13.7232 12.1943 13.7232 11.78C13.7232 11.3658 14.059 11.03 14.4732 11.03C14.8874 11.03 15.2232 11.3658 15.2232 11.78C15.2232 12.1943 14.8874 12.53 14.4732 12.53ZM3.375 14.625H7.4068C7.22896 15.0298 7.12829 15.4681 7.12829 15.9141V16.125H3.375C2.13427 16.125 1.125 15.1157 1.125 13.875C1.125 13.875 1.13891 3.10368 1.1554 3.00256C1.32971 1.93213 2.31848 1.125 3.4552 1.125H13.875C14.2892 1.125 14.625 1.46081 14.625 1.875C14.625 2.28919 14.2892 2.625 13.875 2.625H3.4552C3.05237 2.625 2.69239 2.89672 2.63563 3.24353C2.599 3.47095 2.65833 3.68994 2.80335 3.86059C2.94617 4.02869 3.15455 4.125 3.37501 4.125H13.875C15.1157 4.125 16.125 5.13427 16.125 6.375V7.43989C15.642 7.25642 15.1362 7.15608 14.625 7.13997V6.375C14.625 5.96155 14.2885 5.625 13.875 5.625H3.37501C3.11463 5.625 2.86437 5.56824 2.62501 5.48309V13.875C2.62501 14.2885 2.96155 14.625 3.375 14.625Z" fill="white"/>
</svg>
