<svg width="18" height="18" viewBox="0 0 18 18" fill="none" xmlns="http://www.w3.org/2000/svg">
    <path d="M10.5 4.5H3C2.80109 4.5 2.61032 4.42098 2.46967 4.28033C2.32902 4.13968 2.25 3.94891 2.25 3.75C2.25 3.55109 2.32902 3.36032 2.46967 3.21967C2.61032 3.07902 2.80109 3 3 3H10.5C10.6989 3 10.8897 3.07902 11.0303 3.21967C11.171 3.36032 11.25 3.55109 11.25 3.75C11.25 3.94891 11.171 4.13968 11.0303 4.28033C10.8897 4.42098 10.6989 4.5 10.5 4.5Z" fill="white"/>
    <path d="M6.75 4.5C6.55109 4.5 6.36032 4.42098 6.21967 4.28033C6.07902 4.13968 6 3.94891 6 3.75V2.25C6 2.05109 6.07902 1.86032 6.21967 1.71967C6.36032 1.57902 6.55109 1.5 6.75 1.5C6.94891 1.5 7.13968 1.57902 7.28033 1.71967C7.42098 1.86032 7.5 2.05109 7.5 2.25V3.75C7.5 3.94891 7.42098 4.13968 7.28033 4.28033C7.13968 4.42098 6.94891 4.5 6.75 4.5Z" fill="white"/>
    <path d="M3.74996 13.5C3.59531 13.5001 3.44441 13.4523 3.31793 13.3634C3.19145 13.2744 3.09558 13.1484 3.04343 13.0029C2.99129 12.8573 2.98542 12.6991 3.02665 12.5501C3.06787 12.401 3.15416 12.2683 3.27371 12.1702C4.47659 11.1857 5.46817 9.96839 6.18896 8.59122C6.976 7.08145 7.42345 5.41785 7.49996 3.71697C7.51268 3.5195 7.60128 3.3346 7.74722 3.20096C7.89316 3.06732 8.08513 2.9953 8.28296 2.99997C8.38148 3.00421 8.4782 3.02784 8.56758 3.0695C8.65696 3.11116 8.73725 3.17004 8.80384 3.24277C8.87044 3.3155 8.92204 3.40065 8.95569 3.49334C8.98935 3.58603 9.00439 3.68446 8.99996 3.78297C8.91352 5.70412 8.40769 7.58308 7.51796 9.28797C6.7047 10.8433 5.58525 12.2181 4.22696 13.3297C4.09251 13.4401 3.92389 13.5002 3.74996 13.5Z" fill="white"/>
    <path d="M14.2498 16.5001C14.0793 16.4999 13.914 16.4416 13.7811 16.3349C13.6482 16.2281 13.5556 16.0793 13.5186 15.9128L12.2623 10.2608C12.2306 10.1154 12.15 9.98514 12.0341 9.89176C11.9181 9.79837 11.7737 9.74745 11.6248 9.74745C11.4759 9.74745 11.3315 9.79837 11.2156 9.89176C11.0996 9.98514 11.0191 10.1154 10.9873 10.2608L9.73107 15.9128C9.71123 16.0105 9.67213 16.1032 9.61605 16.1856C9.55997 16.268 9.48804 16.3383 9.40446 16.3926C9.32088 16.4468 9.22732 16.4839 9.12926 16.5016C9.03119 16.5193 8.93059 16.5172 8.83332 16.4956C8.73605 16.474 8.64406 16.4332 8.56273 16.3756C8.4814 16.318 8.41236 16.2448 8.35965 16.1603C8.30693 16.0757 8.27159 15.9815 8.2557 15.8831C8.2398 15.7848 8.24367 15.6842 8.26707 15.5873L9.52482 9.9361C9.63146 9.45869 9.89759 9.03186 10.2793 8.72598C10.6611 8.4201 11.1356 8.25342 11.6248 8.25342C12.114 8.25342 12.5886 8.4201 12.9703 8.72598C13.3521 9.03186 13.6182 9.45869 13.7248 9.9361L14.9811 15.5873C15.0242 15.7815 14.9885 15.9848 14.8817 16.1526C14.775 16.3204 14.6059 16.4389 14.4118 16.4821C14.3586 16.4939 14.3043 16.4999 14.2498 16.5001Z" fill="white"/>
    <path d="M7.49982 12C7.37941 12.0001 7.26077 11.9711 7.15407 11.9153C6.13327 11.3868 5.26549 10.6048 4.63407 9.64428C4.24256 9.04329 3.95197 8.38232 3.77382 7.68753C3.72894 7.49665 3.7606 7.2958 3.86201 7.12798C3.96342 6.96016 4.12651 6.83873 4.31636 6.7897C4.50621 6.74067 4.70771 6.76793 4.87771 6.86566C5.0477 6.96338 5.17266 7.12379 5.22582 7.31253C5.36315 7.84971 5.58763 8.36074 5.89032 8.82528C6.38117 9.56936 7.05461 10.1751 7.84632 10.5848C7.99526 10.6623 8.11387 10.7876 8.18316 10.9405C8.25245 11.0935 8.26841 11.2653 8.22847 11.4284C8.18854 11.5915 8.09503 11.7365 7.96292 11.8401C7.83081 11.9438 7.66773 12.0001 7.49982 12Z" fill="white"/>
    <path d="M13.5 13.5H9.75C9.55109 13.5 9.36032 13.421 9.21967 13.2803C9.07902 13.1397 9 12.9489 9 12.75C9 12.5511 9.07902 12.3603 9.21967 12.2197C9.36032 12.079 9.55109 12 9.75 12H13.5C13.6989 12 13.8897 12.079 14.0303 12.2197C14.171 12.3603 14.25 12.5511 14.25 12.75C14.25 12.9489 14.171 13.1397 14.0303 13.2803C13.8897 13.421 13.6989 13.5 13.5 13.5Z" fill="white"/>
</svg>
