<svg width="18" height="18" viewBox="0 0 18 18" fill="none" xmlns="http://www.w3.org/2000/svg">
    <path fill-rule="evenodd" clip-rule="evenodd" d="M10.6875 3.375C10.6875 3.82255 10.5097 4.25178 10.1932 4.56824C9.87678 4.88471 9.44755 5.0625 9 5.0625C8.55245 5.0625 8.12322 4.88471 7.80676 4.56824C7.49029 4.25178 7.3125 3.82255 7.3125 3.375C7.3125 2.92745 7.49029 2.49822 7.80676 2.18176C8.12322 1.86529 8.55245 1.6875 9 1.6875C9.44755 1.6875 9.87678 1.86529 10.1932 2.18176C10.5097 2.49822 10.6875 2.92745 10.6875 3.375ZM3.375 10.6875C3.82255 10.6875 4.25178 10.5097 4.56824 10.1932C4.88471 9.87678 5.0625 9.44755 5.0625 9C5.0625 8.55245 4.88471 8.12322 4.56824 7.80676C4.25178 7.49029 3.82255 7.3125 3.375 7.3125C2.92745 7.3125 2.49822 7.49029 2.18176 7.80676C1.86529 8.12322 1.6875 8.55245 1.6875 9C1.6875 9.44755 1.86529 9.87678 2.18176 10.1932C2.49822 10.5097 2.92745 10.6875 3.375 10.6875ZM10.6875 9C10.6875 9.44755 10.5097 9.87678 10.1932 10.1932C9.87678 10.5097 9.44755 10.6875 9 10.6875C8.55245 10.6875 8.12322 10.5097 7.80676 10.1932C7.49029 9.87678 7.3125 9.44755 7.3125 9C7.3125 8.55245 7.49029 8.12322 7.80676 7.80676C8.12322 7.49029 8.55245 7.3125 9 7.3125C9.44755 7.3125 9.87678 7.49029 10.1932 7.80676C10.5097 8.12322 10.6875 8.55245 10.6875 9ZM16.3125 9C16.3125 9.44755 16.1347 9.87678 15.8182 10.1932C15.5018 10.5097 15.0726 10.6875 14.625 10.6875C14.1774 10.6875 13.7482 10.5097 13.4318 10.1932C13.1153 9.87678 12.9375 9.44755 12.9375 9C12.9375 8.55245 13.1153 8.12322 13.4318 7.80676C13.7482 7.49029 14.1774 7.3125 14.625 7.3125C15.0726 7.3125 15.5018 7.49029 15.8182 7.80676C16.1347 8.12322 16.3125 8.55245 16.3125 9ZM14.625 5.0625C15.0726 5.0625 15.5018 4.88471 15.8182 4.56824C16.1347 4.25178 16.3125 3.82255 16.3125 3.375C16.3125 2.92745 16.1347 2.49822 15.8182 2.18176C15.5018 1.86529 15.0726 1.6875 14.625 1.6875C14.1774 1.6875 13.7482 1.86529 13.4318 2.18176C13.1153 2.49822 12.9375 2.92745 12.9375 3.375C12.9375 3.82255 13.1153 4.25178 13.4318 4.56824C13.7482 4.88471 14.1774 5.0625 14.625 5.0625ZM5.0625 3.375C5.0625 3.82255 4.88471 4.25178 4.56824 4.56824C4.25178 4.88471 3.82255 5.0625 3.375 5.0625C2.92745 5.0625 2.49822 4.88471 2.18176 4.56824C1.86529 4.25178 1.6875 3.82255 1.6875 3.375C1.6875 2.92745 1.86529 2.49822 2.18176 2.18176C2.49822 1.86529 2.92745 1.6875 3.375 1.6875C3.82255 1.6875 4.25178 1.86529 4.56824 2.18176C4.88471 2.49822 5.0625 2.92745 5.0625 3.375ZM9 16.3125C9.44755 16.3125 9.87678 16.1347 10.1932 15.8182C10.5097 15.5018 10.6875 15.0726 10.6875 14.625C10.6875 14.1774 10.5097 13.7482 10.1932 13.4318C9.87678 13.1153 9.44755 12.9375 9 12.9375C8.55245 12.9375 8.12322 13.1153 7.80676 13.4318C7.49029 13.7482 7.3125 14.1774 7.3125 14.625C7.3125 15.0726 7.49029 15.5018 7.80676 15.8182C8.12322 16.1347 8.55245 16.3125 9 16.3125ZM16.3125 14.625C16.3125 15.0726 16.1347 15.5018 15.8182 15.8182C15.5018 16.1347 15.0726 16.3125 14.625 16.3125C14.1774 16.3125 13.7482 16.1347 13.4318 15.8182C13.1153 15.5018 12.9375 15.0726 12.9375 14.625C12.9375 14.1774 13.1153 13.7482 13.4318 13.4318C13.7482 13.1153 14.1774 12.9375 14.625 12.9375C15.0726 12.9375 15.5018 13.1153 15.8182 13.4318C16.1347 13.7482 16.3125 14.1774 16.3125 14.625ZM3.375 16.3125C3.82255 16.3125 4.25178 16.1347 4.56824 15.8182C4.88471 15.5018 5.0625 15.0726 5.0625 14.625C5.0625 14.1774 4.88471 13.7482 4.56824 13.4318C4.25178 13.1153 3.82255 12.9375 3.375 12.9375C2.92745 12.9375 2.49822 13.1153 2.18176 13.4318C1.86529 13.7482 1.6875 14.1774 1.6875 14.625C1.6875 15.0726 1.86529 15.5018 2.18176 15.8182C2.49822 16.1347 2.92745 16.3125 3.375 16.3125Z" fill="white"/>
</svg>
