<svg width="18" height="18" viewBox="0 0 18 18" fill="none" xmlns="http://www.w3.org/2000/svg">
    <path d="M3.375 14.625H7.4068C7.22896 15.0298 7.12829 15.4681 7.12829 15.9141V16.125H3.375C2.13427 16.125 1.125 15.1157 1.125 13.875C1.125 13.875 1.13891 3.10368 1.1554 3.00256C1.32971 1.93213 2.31848 1.125 3.4552 1.125H13.875C14.2892 1.125 14.625 1.46081 14.625 1.875C14.625 2.28919 14.2892 2.625 13.875 2.625H3.4552C3.05237 2.625 2.69239 2.89672 2.63563 3.24353C2.599 3.47095 2.65833 3.68994 2.80335 3.86059C2.94617 4.02869 3.15455 4.125 3.37501 4.125H13.875C15.1157 4.125 16.125 5.13427 16.125 6.375V14.2539C15.642 14.0704 15.1362 13.9701 14.625 13.954V6.375C14.625 5.96155 14.2885 5.625 13.875 5.625H3.37501C3.11463 5.625 2.86437 5.56824 2.62501 5.48309V13.875C2.62501 14.2885 2.96155 14.625 3.375 14.625Z" fill="white"/>
    <path d="M16.0947 14.2474C15.9204 15.3179 14.9316 16.125 13.7949 16.125H3.37512C2.96093 16.125 2.62512 15.7892 2.62512 15.375C2.62512 14.9608 2.96093 14.625 3.37512 14.625H13.7949C14.1978 14.625 14.5577 14.3533 14.6145 14.0065C14.6328 13.8928 16.0945 9 16.0947 14.2474Z" fill="white"/>
</svg>
