<svg width="20" height="20" viewBox="0 0 20 20" fill="none" xmlns="http://www.w3.org/2000/svg">
    <path fill-rule="evenodd" clip-rule="evenodd" d="M8.12643 6.96433C10.6242 7.39969 12.6003 9.37573 13.0356 11.8735C15.6271 11.8104 17.7083 9.69003 17.7083 7.08329C17.7083 4.43679 15.5632 2.29163 12.9167 2.29163C10.3099 2.29163 8.1896 4.37283 8.12643 6.96433ZM6.875 7.08329C6.875 3.74646 9.57983 1.04163 12.9167 1.04163C16.2535 1.04163 18.9583 3.74646 18.9583 7.08329C18.9583 10.4201 16.2535 13.125 12.9167 13.125C12.7541 13.125 12.5868 13.1155 12.4466 13.1072C12.1351 13.0889 11.8848 12.8436 11.8603 12.5324C11.6761 10.1972 9.80277 8.32386 7.46753 8.13969C7.1564 8.11516 6.91107 7.86486 6.89273 7.55333C6.8845 7.41316 6.875 7.24583 6.875 7.08329Z" fill="#E26139"/>
    <path fill-rule="evenodd" clip-rule="evenodd" d="M7.08334 8.125C4.43684 8.125 2.29167 10.2702 2.29167 12.9167C2.29167 14.508 3.07216 15.9238 4.26797 16.7948C4.54697 16.998 4.6084 17.389 4.4052 17.668C4.20197 17.947 3.81104 18.0084 3.532 17.8052C2.02784 16.7096 1.04167 14.9253 1.04167 12.9167C1.04167 9.57983 3.74651 6.875 7.08334 6.875C7.24587 6.875 7.41321 6.8845 7.55337 6.89273L7.5658 6.8936C10.5139 7.1261 12.8739 9.48613 13.1064 12.4342L13.1073 12.4466C13.1155 12.5868 13.125 12.7541 13.125 12.9167C13.125 16.2535 10.4202 18.9583 7.08334 18.9583C6.73817 18.9583 6.45834 18.6785 6.45834 18.3333C6.45834 17.9882 6.73817 17.7083 7.08334 17.7083C9.72984 17.7083 11.875 15.5632 11.875 12.9167C11.875 12.7977 11.8681 12.6672 11.8598 12.5264C11.673 10.196 9.804 8.32697 7.47357 8.1402C7.33284 8.13193 7.20234 8.125 7.08334 8.125Z" fill="#E26139"/>
    <path fill-rule="evenodd" clip-rule="evenodd" d="M7.08333 10.2083C7.31243 10.2083 7.52317 10.3336 7.63253 10.5349L8.27757 11.7224L9.465 12.3674C9.66633 12.4768 9.79167 12.6875 9.79167 12.9166C9.79167 13.1457 9.66633 13.3564 9.465 13.4658L8.27757 14.1108L7.63253 15.2983C7.52317 15.4996 7.31243 15.6249 7.08333 15.6249C6.85423 15.6249 6.6435 15.4996 6.53413 15.2983L5.8891 14.1108L4.70167 13.4658C4.50033 13.3564 4.375 13.1457 4.375 12.9166C4.375 12.6875 4.50033 12.4768 4.70167 12.3674L5.8891 11.7224L6.53413 10.5349C6.6435 10.3336 6.85423 10.2083 7.08333 10.2083ZM7.08333 12.1426L6.8992 12.4816C6.84157 12.5877 6.75443 12.6748 6.64833 12.7325L6.30937 12.9166L6.64833 13.1007C6.75443 13.1584 6.84157 13.2455 6.8992 13.3516L7.08333 13.6906L7.26747 13.3516C7.3251 13.2455 7.41223 13.1584 7.51833 13.1007L7.8573 12.9166L7.51833 12.7325C7.41223 12.6748 7.3251 12.5877 7.26747 12.4816L7.08333 12.1426Z" fill="white"/>
</svg>
