<svg width="20" height="20" viewBox="0 0 20 20" fill="none" xmlns="http://www.w3.org/2000/svg">
    <g clip-path="url(#clip0_2062_3137)">
        <path d="M8.33328 20C6.61087 20 5.20828 18.5983 5.20828 16.875C5.20828 16.53 5.48828 16.25 5.83328 16.25C6.17828 16.25 6.45828 16.53 6.45828 16.875C6.45828 17.9092 7.29996 18.75 8.33328 18.75C9.36661 18.75 10.2083 17.9092 10.2083 16.875C10.2083 16.53 10.4883 16.25 10.8333 16.25C11.1783 16.25 11.4583 16.53 11.4583 16.875C11.4583 18.5983 10.0558 20 8.33328 20Z" fill="white"/>
        <path d="M15.2083 17.5H1.45828C0.654144 17.5 0 16.8458 0 16.0417C0 15.6149 0.185852 15.2108 0.509949 14.9333C0.530853 14.915 0.553284 14.8983 0.57663 14.8832C1.79993 13.8157 2.5 12.2799 2.5 10.6582V8.33324C2.5 5.61916 4.33914 3.28914 6.9725 2.66659C7.30911 2.58907 7.64587 2.79491 7.72507 3.13167C7.80411 3.46752 7.59583 3.80413 7.26089 3.88332C5.19333 4.3716 3.75 6.20159 3.75 8.33324V10.6582C3.75 12.6716 2.86743 14.5767 1.33087 15.8841C1.31836 15.8941 1.30753 15.9033 1.2941 15.9124C1.27167 15.9408 1.25 15.9842 1.25 16.0417C1.25 16.1549 1.34506 16.25 1.45828 16.25H15.2083C15.3217 16.25 15.4167 16.1549 15.4167 16.0417C15.4167 15.9832 15.3951 15.9408 15.3717 15.9124C15.3592 15.9033 15.3474 15.8941 15.3358 15.8841C14.5892 15.2475 13.9999 14.4792 13.5851 13.6C13.4367 13.2882 13.5699 12.9158 13.8824 12.7674C14.1975 12.6191 14.5667 12.7542 14.7142 13.0658C15.0441 13.7625 15.5066 14.3742 16.0916 14.8858C16.1133 14.9008 16.1359 14.9166 16.1549 14.9333C16.4809 15.2108 16.6667 15.6149 16.6667 16.0417C16.6667 16.8458 16.0126 17.5 15.2083 17.5Z" fill="#E26139"/>
        <path d="M14.5833 10.8333C11.5967 10.8333 9.16672 8.40332 9.16672 5.41672C9.16672 2.42996 11.5967 0 14.5833 0C17.57 0 20 2.42996 20 5.41672C20 8.40332 17.57 10.8333 14.5833 10.8333ZM14.5833 1.25C12.2858 1.25 10.4167 3.1192 10.4167 5.41672C10.4167 7.71423 12.2858 9.58328 14.5833 9.58328C16.8808 9.58328 18.75 7.71423 18.75 5.41672C18.75 3.1192 16.8808 1.25 14.5833 1.25Z" fill="white"/>
        <path d="M14.7917 7.91669C14.4467 7.91669 14.1667 7.63669 14.1667 7.29169V4.58325H13.75C13.405 4.58325 13.125 4.30325 13.125 3.95825C13.125 3.61325 13.405 3.33325 13.75 3.33325H14.7917C15.1367 3.33325 15.4167 3.61325 15.4167 3.95825V7.29169C15.4167 7.63669 15.1367 7.91669 14.7917 7.91669Z" fill="white"/>
    </g>
    <defs>
        <clipPath id="clip0_2062_3137">
            <rect width="20" height="20" fill="white"/>
        </clipPath>
    </defs>
</svg>
