<svg width="28" height="27" viewBox="0 0 28 27" fill="none" xmlns="http://www.w3.org/2000/svg">
    <g clip-path="url(#clip0_2062_3180)">
        <path d="M25.0996 4.85474H2.6088C1.5421 4.85474 0.674286 5.72255 0.674286 6.78925V20.7522C0.674286 21.8189 1.5421 22.6867 2.6088 22.6867H25.0996C26.1663 22.6867 27.0341 21.8189 27.0341 20.7522V6.78925C27.0342 5.72255 26.1663 4.85474 25.0996 4.85474ZM8.78283 16.4654H11.3959C11.7094 16.4654 11.9635 16.7195 11.9635 17.033C11.9635 17.3465 11.7094 17.6006 11.3959 17.6006H8.78283C8.46929 17.6006 8.21521 17.3465 8.21521 17.033C8.21521 16.7195 8.46934 16.4654 8.78283 16.4654ZM3.12905 10.7719C3.12905 10.4584 3.38317 10.2043 3.69666 10.2043H7.09708C7.41062 10.2043 7.6647 10.4584 7.6647 10.7719V13.2304C7.6647 13.544 7.41057 13.798 7.09708 13.798H3.69666C3.38312 13.798 3.12905 13.5439 3.12905 13.2304V10.7719ZM3.69666 16.4654H6.30974C6.62327 16.4654 6.87735 16.7195 6.87735 17.033C6.87735 17.3465 6.62322 17.6006 6.30974 17.6006H3.69666C3.38312 17.6006 3.12905 17.3465 3.12905 17.033C3.12905 16.7195 3.38323 16.4654 3.69666 16.4654ZM13.0253 20.1247H3.69666C3.38312 20.1247 3.12905 19.8706 3.12905 19.5571C3.12905 19.2436 3.38317 18.9895 3.69666 18.9895H13.0253C13.3389 18.9895 13.5929 19.2436 13.5929 19.5571C13.5929 19.8706 13.3389 20.1247 13.0253 20.1247ZM16.4821 17.6006H13.869C13.5555 17.6006 13.3014 17.3465 13.3014 17.033C13.3014 16.7195 13.5555 16.4654 13.869 16.4654H16.4821C16.7956 16.4654 17.0497 16.7195 17.0497 17.033C17.0497 17.3465 16.7956 17.6006 16.4821 17.6006ZM21.5682 17.6006H18.9552C18.6416 17.6006 18.3876 17.3465 18.3876 17.033C18.3876 16.7195 18.6417 16.4654 18.9552 16.4654H21.5682C21.8818 16.4654 22.1358 16.7195 22.1358 17.033C22.1358 17.3465 21.8817 17.6006 21.5682 17.6006ZM24.0118 9.30878H17.8487C17.5351 9.30878 17.2811 9.05466 17.2811 8.74117C17.2811 8.42768 17.5352 8.17356 17.8487 8.17356H24.0118C24.3253 8.17356 24.5794 8.42768 24.5794 8.74117C24.5794 9.05466 24.3252 9.30878 24.0118 9.30878Z" fill="#E26139"/>
    </g>
    <defs>
        <clipPath id="clip0_2062_3180">
            <rect width="26.3598" height="26.3598" fill="white" transform="translate(0.674133 0.59082)"/>
        </clipPath>
    </defs>
</svg>
