<svg width="28" height="27" viewBox="0 0 28 27" fill="none" xmlns="http://www.w3.org/2000/svg">
    <path d="M17.4463 11.8487C13.9635 11.8487 11.1309 14.6824 11.1309 18.1641C11.1309 21.6458 13.9635 24.4795 17.4463 24.4795C20.9291 24.4795 23.7617 21.6458 23.7617 18.1641C23.7617 14.6824 20.9291 11.8487 17.4463 11.8487ZM19.5935 18.9879H17.4463C16.9916 18.9879 16.6225 18.6188 16.6225 18.1641V15.929C16.6225 15.4743 16.9916 15.1053 17.4463 15.1053C17.901 15.1053 18.27 15.4743 18.27 15.929V17.3404H19.5935C20.0482 17.3404 20.4173 17.7094 20.4173 18.1641C20.4173 18.6188 20.0482 18.9879 19.5935 18.9879ZM18.5446 3.06213H7.56135C5.8919 3.06213 4.54095 4.41307 4.54095 6.08253V20.3608C4.54095 22.0302 5.8919 23.3812 7.56135 23.3812H11.4494C10.2193 21.9863 9.48342 20.1631 9.48342 18.1641C9.48342 13.7708 13.053 10.2013 17.4463 10.2013C18.962 10.2013 20.3678 10.6186 21.565 11.3655V6.08253C21.565 4.41307 20.2141 3.06213 18.5446 3.06213ZM9.758 14.5946H8.65968C8.20936 14.5946 7.83593 14.2211 7.83593 13.7708C7.83593 13.3205 8.20936 12.9471 8.65968 12.9471H9.758C10.2083 12.9471 10.5817 13.3205 10.5817 13.7708C10.5817 14.2211 10.2083 14.5946 9.758 14.5946ZM13.053 11.2996H8.65968C8.20936 11.2996 7.83593 10.9261 7.83593 10.4758C7.83593 10.0255 8.20936 9.65209 8.65968 9.65209H13.053C13.5033 9.65209 13.8767 10.0255 13.8767 10.4758C13.8767 10.9261 13.5033 11.2996 13.053 11.2996ZM17.4463 8.0046H8.65968C8.20936 8.0046 7.83593 7.63117 7.83593 7.18085C7.83593 6.73054 8.20936 6.35711 8.65968 6.35711H17.4463C17.8966 6.35711 18.27 6.73054 18.27 7.18085C18.27 7.63117 17.8966 8.0046 17.4463 8.0046Z" fill="#E26139"/>
</svg>
