<svg width="28" height="27" viewBox="0 0 28 27" fill="none" xmlns="http://www.w3.org/2000/svg">
    <g clip-path="url(#clip0_2062_3188)">
        <path d="M3.14117 16.1389H1.54516C1.11831 16.1389 0.772903 16.4843 0.772903 16.9112V26.1783C0.772903 26.6052 1.11831 26.9506 1.54516 26.9506H3.14117C4.41869 26.9506 5.45795 25.9113 5.45795 24.6338V18.4557C5.45795 17.1782 4.41869 16.1389 3.14117 16.1389Z" fill="#E26139"/>
        <path d="M18.638 0.59082C13.958 0.59082 10.1431 4.40573 10.1431 9.08568C10.1431 11.1244 10.869 12.9933 12.0738 14.4606C13.0468 14.7386 13.958 15.2328 14.7303 15.9125C14.8755 16.0214 14.9576 16.0201 15.1164 16.036H17.8657C18.9314 16.036 19.8736 16.5611 20.4142 17.3952C24.2446 16.5766 27.1329 13.1632 27.1329 9.08568C27.1329 4.40573 23.3179 0.59082 18.638 0.59082ZM19.4257 12.8079H19.4102V13.7192C19.4102 14.1517 19.0705 14.4915 18.638 14.4915C18.2055 14.4915 17.8657 14.1517 17.8657 13.7192V12.8079C17.356 12.638 16.8772 12.3137 16.4603 11.804C16.1822 11.4796 16.2286 11.0008 16.5529 10.7229C16.8772 10.4449 17.3715 10.4912 17.6341 10.8155C18.0511 11.3098 18.5144 11.4951 18.9006 11.3561C19.2095 11.248 19.4102 10.9545 19.4102 10.6302C19.4102 10.1977 19.0705 9.85794 18.638 9.85794C17.356 9.85794 16.3212 8.82306 16.3212 7.54116C16.3212 6.6144 16.8772 5.76491 17.7422 5.40972C17.7731 5.39428 17.8194 5.39428 17.8657 5.37878V4.45212C17.8657 4.0196 18.2055 3.67986 18.638 3.67986C19.0705 3.67986 19.4102 4.0196 19.4102 4.45212V5.37878C19.8118 5.51784 20.198 5.71863 20.5532 6.05837C20.8621 6.35183 20.8621 6.84608 20.5686 7.15503C20.2752 7.46399 19.7809 7.46394 19.472 7.17048C19.1013 6.81519 18.6844 6.67623 18.3445 6.83063C18.0511 6.95424 17.8657 7.23226 17.8657 7.54116C17.8657 7.97358 18.2055 8.31342 18.638 8.31342C19.9199 8.31342 20.9548 9.34825 20.9548 10.6302C20.9548 11.6033 20.3369 12.4682 19.4257 12.8079Z" fill="#E26139"/>
        <path d="M26.9011 17.6372C26.8084 17.4828 26.6849 17.3591 26.5459 17.251C25.9772 16.7535 25.0192 16.8006 24.4608 17.4055L20.9547 21.4522L20.8466 21.5756C20.4142 22.0544 19.7963 22.317 19.1476 22.317H13.1034C12.6709 22.317 12.3311 21.9772 12.3311 21.5448C12.3311 21.1123 12.6709 20.7725 13.1034 20.7725H17.8657C18.7151 20.7725 19.4102 20.0775 19.4102 19.228V19.2126C19.3947 18.3631 18.7151 17.6835 17.8657 17.6835H15.0186C14.5554 17.6835 14.0591 17.5134 13.6594 17.1738C11.7752 15.5212 9.02585 15.413 7.00253 16.8186V26.3174C8.53161 26.7344 10.107 26.9507 11.6978 26.9507H18.6379C20.3368 26.9507 21.9432 26.1475 22.9626 24.7883L26.6695 19.8458C27.2103 19.1359 27.2511 18.1623 26.9011 17.6372Z" fill="#E26139"/>
    </g>
    <defs>
        <clipPath id="clip0_2062_3188">
            <rect width="26.3598" height="26.3598" fill="white" transform="translate(0.773041 0.59082)"/>
        </clipPath>
    </defs>
</svg>
