<svg width="68" height="68" viewBox="0 0 68 68" fill="none" xmlns="http://www.w3.org/2000/svg">
    <path fill-rule="evenodd" clip-rule="evenodd" d="M5.23077 23.5385V16.5641C5.23077 13.5582 6.42339 10.6743 8.55056 8.55056C10.6743 6.42339 13.5582 5.23077 16.5641 5.23077H23.5385C24.9822 5.23077 26.1538 4.05908 26.1538 2.61538C26.1538 1.17169 24.9822 0 23.5385 0H16.5641C12.1703 0 7.95774 1.74359 4.85067 4.85067C1.74359 7.95774 0 12.1703 0 16.5641V23.5385C0 24.9822 1.17169 26.1538 2.61538 26.1538C4.05908 26.1538 5.23077 24.9822 5.23077 23.5385Z" fill="white"/>
    <path fill-rule="evenodd" clip-rule="evenodd" d="M44.461 5.23077H51.4354C54.4413 5.23077 57.3252 6.42339 59.4489 8.55056C61.5761 10.6743 62.7687 13.5582 62.7687 16.5641V23.5385C62.7687 24.9822 63.9404 26.1538 65.3841 26.1538C66.8278 26.1538 67.9995 24.9822 67.9995 23.5385V16.5641C67.9995 12.1703 66.2559 7.95774 63.1488 4.85067C60.0417 1.74359 55.8292 0 51.4354 0C47.5925 0 44.461 0 44.461 0C43.0173 0 41.8456 1.17169 41.8456 2.61538C41.8456 4.05908 43.0173 5.23077 44.461 5.23077Z" fill="white"/>
    <path fill-rule="evenodd" clip-rule="evenodd" d="M0 44.4616V51.4359C0 55.8298 1.74359 60.0423 4.85067 63.1494C7.95774 66.2564 12.1703 68 16.5641 68H23.5385C24.9822 68 26.1538 66.8283 26.1538 65.3847C26.1538 63.941 24.9822 62.7693 23.5385 62.7693H16.5641C13.5582 62.7693 10.6743 61.5767 8.55056 59.4495C6.42339 57.3258 5.23077 54.4419 5.23077 51.4359C5.23077 47.5931 5.23077 44.4616 5.23077 44.4616C5.23077 43.0179 4.05908 41.8462 2.61538 41.8462C1.17169 41.8462 0 43.0179 0 44.4616Z" fill="white"/>
    <path fill-rule="evenodd" clip-rule="evenodd" d="M44.461 68H51.4354C55.8292 68 60.0417 66.2564 63.1488 63.1494C66.2559 60.0423 67.9995 55.8298 67.9995 51.4359C67.9995 47.5931 67.9995 44.4616 67.9995 44.4616C67.9995 43.0179 66.8278 41.8462 65.3841 41.8462C63.9404 41.8462 62.7687 43.0179 62.7687 44.4616V51.4359C62.7687 54.4419 61.5761 57.3258 59.4489 59.4495C57.3252 61.5767 54.4413 62.7693 51.4354 62.7693C47.5925 62.7693 44.461 62.7693 44.461 62.7693C43.0173 62.7693 41.8456 63.941 41.8456 65.3847C41.8456 66.8283 43.0173 68 44.461 68Z" fill="white"/>
    <path fill-rule="evenodd" clip-rule="evenodd" d="M43.5916 21.7948V25.282C43.5916 26.7257 44.7633 27.8974 46.207 27.8974C47.6507 27.8974 48.8224 26.7257 48.8224 25.282V21.7948C48.8224 20.3511 47.6507 19.1794 46.207 19.1794C44.7633 19.1794 43.5916 20.3511 43.5916 21.7948Z" fill="white"/>
    <path fill-rule="evenodd" clip-rule="evenodd" d="M19.1784 21.7948V25.282C19.1784 26.7257 20.3501 27.8974 21.7938 27.8974C23.2375 27.8974 24.4092 26.7257 24.4092 25.282V21.7948C24.4092 20.3511 23.2375 19.1794 21.7938 19.1794C20.3501 19.1794 19.1784 20.3511 19.1784 21.7948Z" fill="white"/>
    <path fill-rule="evenodd" clip-rule="evenodd" d="M33.1278 35.869V27.0255C33.1278 25.5818 34.2995 24.4102 35.7432 24.4102C37.1869 24.4102 38.3585 25.5818 38.3585 27.0255V37.4871C38.3585 38.4774 37.7971 39.3841 36.9114 39.827L33.4242 41.5706C32.1339 42.2157 30.5612 41.6926 29.9161 40.3989C29.271 39.1086 29.794 37.5359 31.0878 36.8908L33.1278 35.869Z" fill="white"/>
    <path fill-rule="evenodd" clip-rule="evenodd" d="M44.3559 44.357C44.8301 43.8828 45.4822 43.5898 46.2041 43.5898C47.6478 43.5898 48.8195 44.7615 48.8195 46.2052C48.8195 46.9271 48.5265 47.5792 48.0523 48.0534C47.578 48.5277 48.0523 48.0569 48.0488 48.0604C40.2898 55.8194 27.7081 55.8194 19.9491 48.0604C19.9456 48.0569 19.9456 48.0534 19.9456 48.0534C19.4714 47.5792 19.1784 46.9271 19.1784 46.2052C19.1784 44.7615 20.3501 43.5898 21.7938 43.5898C22.5157 43.5898 23.1678 43.8828 23.642 44.357C24.1163 44.8313 23.6455 44.357 23.649 44.3605C29.3645 50.076 38.6334 50.076 44.3489 44.3605C44.3524 44.357 44.3559 44.357 44.3559 44.357Z" fill="white"/>
</svg>
