<svg width="136" height="161" viewBox="0 0 136 161" fill="none" xmlns="http://www.w3.org/2000/svg">
<g clip-path="url(#clip0_2062_3225)">
<path d="M127.9 31.3L127.7 117.8L49.6001 155.5L56.7001 160L134.7 122.4L134.9 35.8L127.9 31.3Z" fill="white"/>
<path d="M110.2 20.1L103.1 15.6L102.9 102.1L24.8 139.8L31.9001 144.3L109.9 106.7L110.2 20.1Z" fill="white"/>
<path d="M85.4 4.5L78.3 0L78.1 86.5L0 124.2L7.1 128.7L85.1 91.1C85.2 91 85.4 4.5 85.4 4.5Z" fill="white"/>
<path d="M128 31.3L50.0001 69L49.8 155.6L56.9001 160.1L57.1001 73.6L135.2 35.9001C135.1 35.9001 128 31.3 128 31.3Z" fill="#E26139"/>
<path d="M103.2 15.7L25.2 53.3L25 139.9L32.1 144.4L32.3 57.9L110.4 20.2L103.2 15.7Z" fill="#E26139"/>
<path d="M78.4 0L0.399952 37.6L0.199951 124.2L7.29995 128.7L7.49995 42.2L85.6 4.5C85.5 4.5 78.4 0 78.4 0Z" fill="#E26139"/>
</g>
<defs>
<clipPath id="clip0_2062_3225">
<rect width="135.2" height="160.1" fill="white"/>
</clipPath>
</defs>
</svg>
