<svg width="189" height="68" viewBox="0 0 189 68" fill="none" xmlns="http://www.w3.org/2000/svg">
    <g clip-path="url(#clip0_2062_3245)">
        <path d="M54.3234 13.2942L54.2384 50.0337L21.0667 66.0462L24.0823 67.9575L57.2116 51.9875L57.2965 15.2055L54.3234 13.2942Z" fill="white"/>
        <path d="M46.8055 8.53704L43.7899 6.62573L43.705 43.3653L10.5332 59.3778L13.5488 61.2891L46.6781 45.319L46.8055 8.53704Z" fill="white"/>
        <path d="M36.2722 1.91131L33.2566 0L33.1716 36.7395L-0.00012207 52.752L3.01549 54.6633L36.1448 38.6933C36.1873 38.6508 36.2722 1.91131 36.2722 1.91131Z" fill="white"/>
        <path d="M54.3657 13.2942L21.2364 29.3067L21.1515 66.0887L24.1671 68L24.2521 31.2605L57.4238 15.248C57.3813 15.248 54.3657 13.2942 54.3657 13.2942Z" fill="#E26139"/>
        <path d="M43.8324 6.66846L10.7031 22.6385L10.6182 59.4205L13.6338 61.3318L13.7187 24.5923L46.8905 8.57976L43.8324 6.66846Z" fill="#E26139"/>
        <path d="M33.299 0L0.169664 15.97L0.0847168 52.752L3.10033 54.6633L3.18528 17.9238L36.357 1.91131C36.3146 1.91131 33.299 0 33.299 0Z" fill="#E26139"/>
    </g>
    <path d="M72.2048 8.70168C81.8887 8.63028 91.6154 8.60173 101.299 8.55413C103.663 8.55413 105.564 8.44703 107.528 9.32284C107.511 15.4606 107.549 21.5984 107.508 27.7362C107.128 27.2983 106.809 26.8152 106.48 26.3416C104.579 23.6713 101.442 21.8864 98.1435 21.8079C94.8545 21.765 91.5654 21.7817 88.2764 21.7888C88.2764 29.8282 88.2764 37.8675 88.2764 45.9069C91.8153 45.8974 95.3566 45.9259 98.8956 45.8926C102.173 45.5142 105.626 43.9363 107.206 40.8876C108.215 39.0361 108.108 36.8751 108.282 34.8403C108.639 29.5545 108.432 24.2592 108.506 18.9686C108.48 15.4773 108.496 11.986 108.491 8.49463C119.175 8.49463 129.858 8.49463 140.542 8.49463C143.124 12.9284 145.709 17.3598 148.295 21.7912C140.385 21.7912 132.474 21.7912 124.563 21.7912C124.563 23.6261 124.563 25.461 124.563 27.296C133.447 27.296 142.334 27.296 151.218 27.296C151.218 31.7274 151.218 36.1611 151.218 40.5925C142.129 40.5902 133.04 40.5925 123.949 40.5925C123.106 46.0164 120.16 51.1165 115.767 54.4341C111.483 57.6756 106.083 59.1464 100.776 59.3915C91.2513 59.451 81.7293 59.401 72.2048 59.3939C72.2048 42.4965 72.2048 25.5991 72.2048 8.70168Z" fill="#E26139"/>
    <path d="M142.14 8C147.876 8 153.614 8 159.352 8C161.31 11.4675 163.243 14.9541 165.221 18.4121C165.671 18.4121 165.221 18.4121 165.761 18.4121C167.505 15.2802 169.604 11.132 171.356 8.00238C177.027 7.99762 182.699 8.00238 188.37 8C183.622 16.2892 178.869 24.5761 174.124 32.8677C173.881 33.1652 173.926 33.5722 174.145 33.8673C178.888 42.1399 183.629 50.4172 188.372 58.6922C182.701 58.6922 177.03 58.6922 171.361 58.6922C169.407 55.2556 167.515 51.7833 165.525 48.3681C165.437 48.3705 165.263 48.3729 165.178 48.3729C163.131 51.7904 161.165 55.258 159.149 58.6922C142.471 58.6922 125.678 58.6625 109 58.6625C112.123 57.5022 114.35 56.2671 116.706 54.6059C119.476 52.4473 121.573 49.614 123.279 46.5249C123.689 45.5134 124.172 44.4722 124.424 43.4584C124.439 44.1152 124.439 44.7399 124.531 45.4123C132.866 45.4123 141.202 45.4123 149.539 45.4123C151.791 41.6663 154.056 37.9274 156.248 34.1457C156.586 33.6531 156.686 32.9867 156.284 32.4988C151.336 24.469 146.779 16.2107 142.14 8Z" fill="#E26139"/>
    <defs>
        <clipPath id="clip0_2062_3245">
            <rect width="57.4241" height="68" fill="white"/>
        </clipPath>
    </defs>
</svg>
