<svg width="186" height="82" viewBox="0 0 186 82" fill="none" xmlns="http://www.w3.org/2000/svg">
    <path d="M0 0.333392C15.5929 0.218429 31.2547 0.172457 46.8476 0.0958146C50.6529 0.0958146 53.7148 -0.0766438 56.8763 1.33357C56.8494 11.2166 56.9108 21.0996 56.8456 30.9827C56.2325 30.2775 55.719 29.4996 55.1901 28.737C52.1283 24.4374 47.0775 21.5633 41.7662 21.4369C36.4702 21.3679 31.1743 21.3947 25.8783 21.4062C25.8783 34.3511 25.8783 47.296 25.8783 60.2409C31.5766 60.2255 37.2788 60.2715 42.9772 60.2179C48.254 59.6086 53.8144 57.0679 56.3589 52.1589C57.9837 49.1775 57.8113 45.698 58.091 42.4215C58.6659 33.9104 58.3325 25.3839 58.4513 16.8651C58.4091 11.2434 58.4359 5.62171 58.4283 0C75.6306 0 92.833 0 110.035 0C114.193 7.13923 118.355 14.2746 122.52 21.41C109.782 21.41 97.0445 21.41 84.3065 21.41C84.3065 24.3646 84.3065 27.3191 84.3065 30.2737C98.6118 30.2737 112.921 30.2737 127.226 30.2737C127.226 37.4091 127.226 44.5483 127.226 51.6837C112.591 51.6799 97.9565 51.6837 83.3179 51.6837C81.9613 60.4171 77.2171 68.6294 70.143 73.9713C63.2452 79.1907 54.5502 81.5589 46.0046 81.9536C30.6684 82.0494 15.3361 81.9689 0 81.9575C0 54.7494 0 27.5414 0 0.333392Z" fill="#E26139"/>
    <path d="M111.432 0C120.667 0 129.907 0 139.146 0C142.3 5.58339 145.411 11.1974 148.596 16.7655C149.322 16.7655 148.596 16.7655 149.466 16.7655C152.275 11.7225 155.655 5.04306 158.475 0.00383001C167.607 -0.00383422 176.739 0.00383212 185.871 0C178.226 13.3473 170.573 26.6907 162.932 40.0418C162.541 40.5208 162.614 41.1761 162.966 41.6513C170.604 54.9717 178.237 68.2998 185.875 81.6241C176.743 81.6241 167.611 81.6241 158.483 81.6241C155.336 76.0905 152.29 70.4994 149.086 65.0004C148.945 65.0042 148.665 65.008 148.527 65.008C145.231 70.5109 142.066 76.0943 138.82 81.6241C111.965 81.6241 84.9252 81.5762 58.0697 81.5762C63.0994 79.708 66.6843 77.7191 70.4781 75.0443C74.9387 71.5686 78.3148 67.0065 81.0624 62.0324C81.7215 60.4037 82.4994 58.7272 82.9057 57.0947C82.9306 58.1524 82.9306 59.1583 83.0781 60.2409C96.4982 60.2409 109.922 60.2409 123.346 60.2409C126.971 54.2091 130.619 48.1889 134.149 42.0996C134.693 41.3064 134.854 40.2334 134.206 39.4478C126.239 26.5182 118.901 13.2208 111.432 0Z" fill="#E26139"/>
</svg>
