<svg width="48" height="48" viewBox="0 0 48 48" fill="none" xmlns="http://www.w3.org/2000/svg">
    <path opacity="0.2" d="M24 44C35.0457 44 44 35.0457 44 24C44 12.9543 35.0457 4 24 4C12.9543 4 4 12.9543 4 24C4 35.0457 12.9543 44 24 44Z" fill="#F96B4B"/>
    <path opacity="0.5" d="M24 44C35.0457 44 44 35.0457 44 24C44 12.9543 35.0457 4 24 4C12.9543 4 4 12.9543 4 24C4 35.0457 12.9543 44 24 44Z" fill="white"/>
    <path d="M24.8314 27.5731L28.3635 24.041L24.8314 20.5378L21.3089 24.0699L24.8314 27.5731ZM24.8314 32.6259L18.8162 26.5626L15.2841 30.1043L24.8314 39.6612L34.3883 30.0947L30.8562 26.5626L24.8314 32.6259ZM36.881 20.5378L33.3874 24.0699L36.9099 27.602L40.442 24.0699L36.881 20.5378ZM24.8314 15.5139L30.8562 21.5387L34.3883 18.0066L24.8314 8.47852L15.2841 18.0451L18.8162 21.5772L24.8314 15.5139ZM16.285 24.0699L12.7914 27.5731L9.25928 24.0699L12.7914 20.5378L16.285 24.0699Z" fill="#F0B90A"/>
</svg>
