<svg width="48" height="48" viewBox="0 0 48 48" fill="none" xmlns="http://www.w3.org/2000/svg">
    <g clip-path="url(#clip0_2062_3321)">
        <rect x="4" y="4" width="40" height="40" rx="20" fill="#F0B90A"/>
        <path d="M32.1193 18.8398C31.7167 15.9953 29.28 15.1796 26.1895 14.9644L26.0221 11.0198L23.6499 11.1494L23.7808 14.9667C23.1719 15.0036 22.4993 15.0588 21.8722 15.0321L21.723 11.1512L19.3326 11.2171L19.5 15.1617C18.9547 15.1804 14.6556 15.3117 14.6556 15.3117L14.758 17.8293C14.758 17.8293 16.5212 17.7367 16.4576 17.755C17.421 17.7541 17.776 18.2718 17.8401 18.7353L18.2412 29.4965C18.1869 29.7874 18.0602 30.3056 17.3694 30.2972C17.3876 30.3608 15.6061 30.3898 15.6061 30.3898L15.2544 33.2441C15.2544 33.2441 19.5535 33.1128 20.0988 33.0941L20.2026 37.0569L22.593 36.991L22.4256 33.0464C23.1164 33.0549 23.7253 33.0179 24.3343 32.981L24.4834 36.8619L26.8738 36.796L26.77 32.8332C30.7871 32.4386 33.5764 31.3634 33.8001 27.5821C33.9517 24.5098 32.478 23.2114 30.2143 22.7591C31.5772 22.2306 32.3849 20.9665 32.1193 18.8398ZM29.0918 27.4866C29.1946 30.4859 24.1136 30.2908 22.4775 30.3469L22.2817 25.1026C23.9177 25.0465 28.9524 24.36 29.0918 27.4866ZM27.7304 20.0983C27.8239 22.825 23.5791 22.6654 22.2158 22.7122L22.0204 17.9496C23.3655 17.8393 27.6005 17.2444 27.7304 20.0983Z" fill="white"/>
    </g>
    <defs>
        <clipPath id="clip0_2062_3321">
            <rect width="40" height="40" fill="white" transform="translate(4 4)"/>
        </clipPath>
    </defs>
</svg>
