<svg width="40" height="40" viewBox="0 0 40 40" fill="none" xmlns="http://www.w3.org/2000/svg">
    <path opacity="0.2" d="M20 40C31.0457 40 40 31.0457 40 20C40 8.9543 31.0457 0 20 0C8.9543 0 0 8.9543 0 20C0 31.0457 8.9543 40 20 40Z" fill="#F96B4B"/>
    <path opacity="0.5" d="M20 40C31.0457 40 40 31.0457 40 20C40 8.9543 31.0457 0 20 0C8.9543 0 0 8.9543 0 20C0 31.0457 8.9543 40 20 40Z" fill="white"/>
    <path d="M20.8314 23.5731L24.3635 20.041L20.8314 16.5378L17.3089 20.0699L20.8314 23.5731ZM20.8314 28.6259L14.8162 22.5626L11.2841 26.1043L20.8314 35.6612L30.3883 26.0947L26.8562 22.5626L20.8314 28.6259ZM32.881 16.5378L29.3874 20.0699L32.9099 23.602L36.442 20.0699L32.881 16.5378ZM20.8314 11.5139L26.8562 17.5387L30.3883 14.0066L20.8314 4.47852L11.2841 14.0451L14.8162 17.5772L20.8314 11.5139ZM12.285 20.0699L8.79139 23.5731L5.25928 20.0699L8.79139 16.5378L12.285 20.0699Z" fill="#F0B90A"/>
</svg>
