<svg width="40" height="40" viewBox="0 0 40 40" fill="none" xmlns="http://www.w3.org/2000/svg">
    <path d="M39.8915 20.0005C39.8915 30.988 30.9845 39.8952 19.9971 39.8952C9.00955 39.8952 0.102478 30.988 0.102478 20.0005C0.102478 9.01303 9.00955 0.105957 19.9971 0.105957C30.9844 0.105957 39.8915 9.01303 39.8915 20.0005Z" fill="white"/>
    <g opacity="0.8">
        <path d="M19.9335 10.7693L19.8106 11.187V23.3067L19.9335 23.4293L25.5593 20.1039L19.9335 10.7693Z" fill="#4D4D4D"/>
        <path d="M19.9335 10.7693L14.3077 20.1039L19.9335 23.4294V17.5468V10.7693Z" fill="#4D4D4D"/>
        <path d="M19.9334 25.2598L19.8642 25.3442V29.6615L19.9334 29.8637L25.5627 21.936L19.9334 25.2598Z" fill="#4D4D4D"/>
        <path d="M19.9335 29.8638V25.2598L14.3077 21.936L19.9335 29.8638Z" fill="#4D4D4D"/>
        <path d="M19.9335 23.4293L25.5592 20.104L19.9335 17.5469V23.4293Z" fill="#4D4D4D"/>
        <path d="M14.3077 20.104L19.9334 23.4294V17.5469L14.3077 20.104Z" fill="#4D4D4D"/>
    </g>
</svg>
