<svg width="24" height="24" viewBox="0 0 24 24" fill="none" xmlns="http://www.w3.org/2000/svg">
    <path d="M12 1.5C9.9233 1.5 7.89323 2.11581 6.16652 3.26957C4.4398 4.42332 3.09399 6.0632 2.29927 7.98182C1.50455 9.90045 1.29661 12.0116 1.70176 14.0484C2.1069 16.0852 3.10693 17.9562 4.57538 19.4246C6.04383 20.8931 7.91476 21.8931 9.95156 22.2982C11.9884 22.7034 14.0996 22.4955 16.0182 21.7007C17.9368 20.906 19.5767 19.5602 20.7304 17.8335C21.8842 16.1068 22.5 14.0767 22.5 12C22.5 9.21523 21.3938 6.54451 19.4246 4.57538C17.4555 2.60625 14.7848 1.5 12 1.5ZM12 21C10.22 21 8.47992 20.4722 6.99987 19.4832C5.51983 18.4943 4.36628 17.0887 3.68509 15.4442C3.0039 13.7996 2.82567 11.99 3.17294 10.2442C3.5202 8.49836 4.37737 6.89471 5.63604 5.63604C6.89472 4.37737 8.49836 3.5202 10.2442 3.17293C11.99 2.82567 13.7996 3.0039 15.4442 3.68508C17.0887 4.36627 18.4943 5.51983 19.4832 6.99987C20.4722 8.47991 21 10.22 21 12C21 14.3869 20.0518 16.6761 18.364 18.364C16.6761 20.0518 14.387 21 12 21ZM16.44 6.555L10.0725 9.75C9.92866 9.82605 9.81105 9.94366 9.735 10.0875L6.555 16.44C6.49892 16.5545 6.47294 16.6813 6.4795 16.8086C6.48606 16.9359 6.52495 17.0594 6.5925 17.1675C6.66006 17.2756 6.75404 17.3647 6.86558 17.4263C6.97713 17.488 7.10255 17.5203 7.23 17.52C7.34428 17.5205 7.45716 17.4948 7.56001 17.445L13.9275 14.25C14.0713 14.174 14.189 14.0563 14.265 13.9125L17.445 7.545C17.5144 7.40438 17.538 7.24555 17.5124 7.09084C17.4868 6.93613 17.4134 6.79332 17.3025 6.6825C17.19 6.57401 17.0463 6.50341 16.8917 6.48055C16.737 6.45769 16.5791 6.48372 16.44 6.555ZM13.035 13.035L8.9025 15.0975L10.965 10.965L15.0975 8.9025L13.035 13.035Z" fill="#A2A2A2"/>
</svg>
