<svg width="25" height="24" viewBox="0 0 25 24" fill="none" xmlns="http://www.w3.org/2000/svg">
    <path fill-rule="evenodd" clip-rule="evenodd" d="M22.6 3.8172L22.6 20.181L21.6909 21L18.0546 21L17.1455 20.181L17.1455 3.819L18.0546 3L21.6909 3L22.6 3.8172ZM18.9637 4.6362L18.9637 19.3638L20.7819 19.3638L20.7819 4.6362L18.9637 4.6362ZM15.3273 7.3992L15.3273 20.2008L14.4182 21L10.7819 21L9.87276 20.2008L9.87276 7.3992L10.7819 6.6L14.4182 6.6L15.3273 7.3992ZM11.6909 8.2002L11.6909 19.398L13.5091 19.398L13.5091 8.1984L11.6909 8.1984L11.6909 8.2002ZM8.05458 20.2278L8.05458 10.9704L7.14549 10.2L3.50913 10.2L2.60004 10.9704L2.60003 20.2278L3.50913 21L7.14549 21L8.05458 20.2278ZM4.41822 19.4574L4.41822 11.7426L6.2364 11.7426L6.2364 19.4574L4.41822 19.4574Z" fill="#A2A2A2"/>
</svg>
