<svg width="25" height="24" viewBox="0 0 25 24" fill="none" xmlns="http://www.w3.org/2000/svg">
    <g clip-path="url(#clip0_2062_3563)">
        <path d="M22.5218 13.5896L21.6898 12.9047C21.1199 12.4355 21.1209 11.5635 21.6898 11.0953L22.5218 10.4104C23.1139 9.92289 23.2653 9.08703 22.8819 8.42277L21.239 5.57723C20.8555 4.91301 20.0557 4.62629 19.3377 4.89527L18.3285 5.27336C17.6372 5.53227 16.8825 5.09559 16.7614 4.36863L16.5843 3.30559C16.4582 2.5491 15.81 2 15.0431 2H11.7573C10.9903 2 10.3421 2.5491 10.2161 3.30562L10.0389 4.36863C9.91751 5.09687 9.1618 5.53184 8.47184 5.2734L7.46266 4.89527C6.74458 4.62629 5.94489 4.91305 5.56133 5.57723L3.91848 8.42273C3.53501 9.08691 3.68641 9.92281 4.27856 10.4103L5.11055 11.0952C5.68055 11.5645 5.67942 12.4364 5.11055 12.9047L4.27852 13.5896C3.68641 14.0771 3.53497 14.913 3.91844 15.5772L5.56133 18.4227C5.94485 19.0869 6.74438 19.3737 7.46266 19.1047L8.4718 18.7266C9.16317 18.4676 9.9177 18.9046 10.0388 19.6313L10.216 20.6943C10.3421 21.4509 10.9903 22 11.7573 22H15.043C15.81 22 16.4582 21.4509 16.5842 20.6944L16.7614 19.6314C16.8827 18.9034 17.6384 18.4681 18.3284 18.7267L19.3377 19.1047C20.0559 19.3738 20.8555 19.087 21.239 18.4228L22.8819 15.5772C23.2653 14.913 23.1139 14.0771 22.5218 13.5896ZM19.8858 17.6415L18.8766 17.2634C17.2634 16.6591 15.5028 17.6787 15.2202 19.3745L15.0431 20.4375H11.7573L11.5801 19.3745C11.297 17.6754 9.5338 16.6603 7.92368 17.2634L6.9145 17.6415L5.27165 14.796L6.10364 14.1111C7.43368 13.0161 7.4309 10.9816 6.10364 9.88895L5.27165 9.20402L6.91454 6.35848L7.92368 6.73656C9.53696 7.34086 11.2975 6.32133 11.5801 4.62551L11.7573 3.5625H15.043L15.2202 4.62551C15.5034 6.3248 17.2666 7.33961 18.8766 6.73656L19.8858 6.35848L21.529 9.20363C21.529 9.20363 21.5289 9.20375 21.5286 9.20398L20.6966 9.88891C19.3666 10.9837 19.3693 13.0183 20.6966 14.111L21.5286 14.7959L19.8858 17.6415ZM13.4002 8.14582C11.275 8.14582 9.54598 9.8748 9.54598 12C9.54598 14.1252 11.275 15.8542 13.4002 15.8542C15.5254 15.8542 17.2543 14.1252 17.2543 12C17.2543 9.8748 15.5254 8.14582 13.4002 8.14582ZM13.4002 14.2917C12.1365 14.2917 11.1085 13.2636 11.1085 12C11.1085 10.7364 12.1365 9.70832 13.4002 9.70832C14.6638 9.70832 15.6918 10.7364 15.6918 12C15.6918 13.2636 14.6638 14.2917 13.4002 14.2917Z" fill="#A2A2A2"/>
    </g>
    <defs>
        <clipPath id="clip0_2062_3563">
            <rect width="20" height="20" fill="white" transform="translate(3.40015 2)"/>
        </clipPath>
    </defs>
</svg>
