<svg width="48" height="48" viewBox="0 0 48 48" fill="none" xmlns="http://www.w3.org/2000/svg">
    <path opacity="0.2" d="M24 44C35.0457 44 44 35.0457 44 24C44 12.9543 35.0457 4 24 4C12.9543 4 4 12.9543 4 24C4 35.0457 12.9543 44 24 44Z" fill="#F96B4B"/>
    <path opacity="0.5" d="M24 44C35.0457 44 44 35.0457 44 24C44 12.9543 35.0457 4 24 4C12.9543 4 4 12.9543 4 24C4 35.0457 12.9543 44 24 44Z" fill="white"/>
    <path d="M15.869 20.2422H29.7289C29.8195 20.2422 29.91 20.2241 29.9946 20.1877C30.0791 20.1513 30.1636 20.0907 30.2239 20.024L33.1456 16.823C33.1819 16.7866 33.206 16.7442 33.2241 16.6957C33.2422 16.6472 33.2422 16.5926 33.2362 16.5441C33.2302 16.4956 33.2121 16.4471 33.1879 16.4047C33.1638 16.3622 33.1215 16.3258 33.0792 16.2955C33.0249 16.2592 32.9585 16.241 32.8921 16.241H19.0382C18.9476 16.241 18.851 16.2652 18.7665 16.3016C18.682 16.338 18.6035 16.3925 18.5432 16.4592L15.6215 19.6602C15.5792 19.7087 15.549 19.7754 15.537 19.8421C15.5249 19.9088 15.537 19.9755 15.5611 20.0361C15.5853 20.0967 15.6275 20.1513 15.6818 20.1877C15.7362 20.2241 15.8026 20.2422 15.869 20.2422ZM30.2239 22.54C30.1575 22.4733 30.0791 22.4187 29.9946 22.3823C29.91 22.346 29.8195 22.3217 29.7289 22.3217H15.869C15.8026 22.3217 15.7362 22.3399 15.6818 22.3763C15.6275 22.4126 15.5853 22.4672 15.5611 22.5278C15.537 22.5885 15.5249 22.6612 15.537 22.7279C15.549 22.7946 15.5792 22.8552 15.6215 22.9037L18.5432 26.1047C18.6096 26.1714 18.682 26.232 18.7665 26.2684C18.851 26.3048 18.9476 26.329 19.0382 26.329H32.8921C32.9585 26.329 33.0249 26.3048 33.0792 26.2684C33.1336 26.232 33.1819 26.1775 33.206 26.1169C33.2302 26.0562 33.2362 25.9895 33.2241 25.9229C33.2121 25.8562 33.1819 25.7955 33.1396 25.747L30.2239 22.54ZM33.1456 28.9905L30.2239 32.1855C30.1636 32.2522 30.0791 32.3128 29.9946 32.3492C29.91 32.3855 29.8195 32.4098 29.7289 32.4098H15.869C15.8026 32.4098 15.7362 32.3855 15.6818 32.3492C15.6275 32.3128 15.5853 32.2582 15.5611 32.1976C15.537 32.137 15.5249 32.0703 15.537 32.0036C15.549 31.9369 15.5792 31.8763 15.6215 31.8278L18.5432 28.6268C18.6035 28.5601 18.682 28.4994 18.7665 28.4631C18.851 28.4267 18.9476 28.4024 19.0382 28.4024H32.8921C32.9585 28.4024 33.0249 28.4206 33.0792 28.457C33.1336 28.4934 33.1879 28.5479 33.2121 28.6086C33.2362 28.6692 33.2483 28.7419 33.2362 28.8086C33.2241 28.8753 33.1939 28.942 33.1456 28.9905Z" fill="url(#paint0_linear_2062_3358)"/>
    <defs>
        <linearGradient id="paint0_linear_2062_3358" x1="17.0253" y1="32.7934" x2="31.8917" y2="16.3757" gradientUnits="userSpaceOnUse">
            <stop offset="0.08" stop-color="#9945FF"/>
            <stop offset="0.3" stop-color="#8752F3"/>
            <stop offset="0.5" stop-color="#5497D5"/>
            <stop offset="0.6" stop-color="#43B4CA"/>
            <stop offset="0.72" stop-color="#28E0B9"/>
            <stop offset="0.97" stop-color="#19FB9B"/>
        </linearGradient>
    </defs>
</svg>
