<svg width="25" height="24" viewBox="0 0 25 24" fill="none" xmlns="http://www.w3.org/2000/svg">
    <g clip-path="url(#clip0_2062_3554)">
        <path d="M5.49524 10.3332H15.15C15.6103 10.3332 15.9834 9.96014 15.9834 9.4999C15.9834 9.03967 15.6103 8.66658 15.15 8.66658H5.49524L7.40599 6.75584C7.73142 6.43041 7.73142 5.90275 7.40599 5.57732C7.08056 5.25189 6.5529 5.25189 6.22747 5.57732L2.89411 8.91064C2.8747 8.93006 2.85634 8.95049 2.83892 8.97174C2.83103 8.98135 2.82415 8.9915 2.81677 9.00139C2.80786 9.01326 2.79868 9.02486 2.7904 9.03725C2.78247 9.04908 2.7756 9.06139 2.76833 9.07354C2.76165 9.08471 2.75462 9.09564 2.74845 9.10717C2.74181 9.11955 2.73618 9.13232 2.73024 9.14498C2.72458 9.15697 2.7186 9.16877 2.71349 9.18107C2.70841 9.19338 2.70427 9.20596 2.69981 9.21846C2.69509 9.23162 2.69005 9.24459 2.68599 9.25803C2.6822 9.27053 2.67942 9.28322 2.67626 9.29588C2.67278 9.30959 2.66896 9.32314 2.66618 9.33713C2.66329 9.35178 2.66157 9.36654 2.65946 9.38127C2.65774 9.39342 2.6554 9.40541 2.65419 9.41771C2.6488 9.4724 2.6488 9.52752 2.65419 9.58221C2.6554 9.59451 2.65771 9.60646 2.65946 9.61865C2.66157 9.63338 2.66329 9.64818 2.66622 9.66279C2.66899 9.67678 2.67282 9.69029 2.6763 9.704C2.67946 9.71666 2.68224 9.72936 2.68603 9.74186C2.69009 9.75529 2.69513 9.7683 2.69985 9.78143C2.70435 9.79393 2.70845 9.8065 2.71353 9.81881C2.7186 9.83111 2.72462 9.84287 2.73028 9.85486C2.73626 9.86752 2.74188 9.88029 2.74853 9.89271C2.7547 9.9042 2.76169 9.9151 2.76837 9.92627C2.77563 9.93846 2.78251 9.95076 2.79044 9.96264C2.79868 9.97498 2.80786 9.98654 2.81673 9.99842C2.82415 10.0083 2.83103 10.0185 2.83896 10.0281C2.85626 10.0492 2.8745 10.0695 2.89376 10.0888C2.89392 10.0889 2.89399 10.0891 2.89415 10.0892L6.22747 13.4225C6.5529 13.7479 7.08056 13.7479 7.40599 13.4225C7.73142 13.0971 7.73142 12.5694 7.40599 12.244L5.49524 10.3332Z" fill="#A2A2A2"/>
        <path d="M22.4611 15.028C22.4691 15.0183 22.476 15.0081 22.4834 14.9981C22.4923 14.9863 22.5014 14.9748 22.5096 14.9625C22.5176 14.9506 22.5245 14.9383 22.5318 14.9261C22.5384 14.9149 22.5454 14.904 22.5515 14.8926C22.5582 14.8802 22.5638 14.8674 22.5698 14.8547C22.5755 14.8427 22.5814 14.831 22.5865 14.8187C22.5916 14.8064 22.5957 14.7938 22.6002 14.7813C22.6049 14.7681 22.61 14.7552 22.614 14.7417C22.6178 14.7292 22.6206 14.7165 22.6237 14.7039C22.6272 14.6902 22.631 14.6766 22.6338 14.6627C22.6367 14.648 22.6384 14.6333 22.6406 14.6185C22.6423 14.6064 22.6446 14.5944 22.6459 14.5821C22.6512 14.5274 22.6512 14.4723 22.6459 14.4176C22.6446 14.4053 22.6423 14.3933 22.6406 14.3812C22.6385 14.3664 22.6368 14.3516 22.6338 14.337C22.631 14.323 22.6272 14.3095 22.6237 14.2958C22.6206 14.2831 22.6178 14.2704 22.614 14.2579C22.61 14.2445 22.6049 14.2315 22.6002 14.2184C22.5957 14.2059 22.5916 14.1933 22.5865 14.181C22.5814 14.1687 22.5755 14.157 22.5698 14.145C22.5638 14.1323 22.5582 14.1195 22.5515 14.1071C22.5454 14.0956 22.5384 14.0847 22.5318 14.0736C22.5245 14.0614 22.5176 14.0491 22.5096 14.0372C22.5014 14.0249 22.4923 14.0133 22.4834 14.0015C22.476 13.9916 22.4691 13.9814 22.4611 13.9717C22.444 13.9508 22.4259 13.9307 22.4068 13.9115C22.4065 13.9112 22.4062 13.9109 22.4059 13.9106L19.0726 10.5773C18.7472 10.2519 18.2195 10.2519 17.8941 10.5773C17.5687 10.9028 17.5687 11.4304 17.8941 11.7558L19.8048 13.6666H10.15C9.6898 13.6666 9.31671 14.0397 9.31671 14.4999C9.31671 14.9601 9.6898 15.3332 10.15 15.3332H19.8048L17.8941 17.244C17.5687 17.5694 17.5687 18.097 17.8941 18.4225C18.2195 18.7479 18.7472 18.7479 19.0726 18.4225L22.4059 15.0892C22.4062 15.0888 22.4065 15.0885 22.4068 15.0883C22.4259 15.069 22.444 15.0489 22.4611 15.028Z" fill="#A2A2A2"/>
    </g>
    <defs>
        <clipPath id="clip0_2062_3554">
            <rect width="20" height="20" fill="white" transform="translate(2.65002 2)"/>
        </clipPath>
    </defs>
</svg>
